<!--
    SPDX-FileCopyrightText: Sebastiano Barezzi <seba@sebaubuntu.dev>
    SPDX-License-Identifier: CC-BY-SA-4.0
-->
<svg width="300mm" height="300mm" viewBox="0 0 300 300" xmlns="http://www.w3.org/2000/svg">
    <path
        d="M135.117 79.219s-9.789-.154-19.914 4.908c-10.124 5.063-21.101 17.475-21.101 36.108 0 18.632 10.977 31.045 21.101 36.107 10.125 5.062 19.914 4.908 19.914 4.908h29.766s5.093.154 9.852 2.533c4.758 2.38 8.664 4.85 8.664 15.983 0 11.133-3.906 13.603-8.664 15.982-4.759 2.38-9.852 2.533-9.852 2.533h-59.531a11.25 11.25 0 00-11.25 11.25 11.25 11.25 0 0011.25 11.25h59.531s9.79.154 19.914-4.908c10.125-5.062 21.102-17.474 21.102-36.107s-10.977-31.045-21.102-36.108c-10.125-5.062-19.914-4.908-19.914-4.908h-29.766s-5.093-.154-9.851-2.533c-4.758-2.38-8.664-4.85-8.664-15.982 0-11.133 3.906-13.604 8.664-15.983 4.758-2.379 9.851-2.533 9.851-2.533h59.532a11.25 11.25 0 0011.25-11.25 11.25 11.25 0 00-11.25-11.25h-59.532zm59.532 5.297a5.953 5.953 0 015.953 5.953 5.953 5.953 0 01-5.953 5.953 5.953 5.953 0 01-5.954-5.953 5.953 5.953 0 015.954-5.953zm-89.297 119.062a5.953 5.953 0 015.953 5.953 5.953 5.953 0 01-5.953 5.953 5.953 5.953 0 01-5.953-5.953 5.953 5.953 0 015.953-5.953z"
        color="#000" fill="#fff" />
</svg>
