<!--
    SPDX-FileCopyrightText: The LineageOS Project
    SPDX-License-Identifier: Apache-2.0
-->
<svg width="108" height="108" viewBox="0 0 108 108" fill="none" xmlns="http://www.w3.org/2000/svg">
    <mask id="mask0_2583_4307" style="mask-type:alpha" maskUnits="userSpaceOnUse" x="18" y="18" width="72" height="72">
        <circle cx="54" cy="54" r="36" fill="white" />
    </mask>
    <g mask="url(#mask0_2583_4307)">
        <rect width="108" height="108" fill="white" />
        <rect x="38" y="30" width="32" height="48" rx="4" fill="#551E22" />
        <path d="M38 34C38 31.7909 39.7909 30 42 30H66C68.2091 30 70 31.7909 70 34V46H38V34Z" fill="#2A3232" />
        <circle cx="44" cy="52" r="2" fill="#2A3232" />
        <circle cx="44" cy="62" r="2" fill="#2A3232" />
        <circle cx="44" cy="72" r="2" fill="#2A3232" />
        <circle cx="54" cy="52" r="2" fill="#2A3232" />
        <circle cx="54" cy="62" r="2" fill="#2A3232" />
        <circle cx="54" cy="72" r="2" fill="#2A3232" />
        <circle cx="64" cy="52" r="2" fill="#2A3232" />
        <circle cx="64" cy="62" r="2" fill="#2A3232" />
        <circle cx="64" cy="72" r="2" fill="#2A3232" />
        <rect x="40" y="48" width="8" height="8" rx="1" fill="white" />
        <rect x="40" y="58" width="8" height="8" rx="1" fill="white" />
        <path
            d="M40 69C40 68.4477 40.4477 68 41 68H47C47.5523 68 48 68.4477 48 69V75C48 75.5523 47.5523 76 47 76H42C40.8954 76 40 75.1046 40 74V69Z"
            fill="white" />
        <rect x="50" y="48" width="8" height="8" rx="1" fill="white" />
        <rect x="60" y="48" width="8" height="8" rx="1" fill="#F93B4F" />
        <rect x="50" y="58" width="8" height="8" rx="1" fill="white" />
        <rect x="60" y="58" width="8" height="8" rx="1" fill="#F93B4F" />
        <rect x="50" y="68" width="8" height="8" rx="1" fill="white" />
        <path
            d="M60 69C60 68.4477 60.4477 68 61 68H67C67.5523 68 68 68.4477 68 69V74C68 75.1046 67.1046 76 66 76H61C60.4477 76 60 75.5523 60 75V69Z"
            fill="#F93B4F" />
        <mask id="mask1_2583_4307" style="mask-type:alpha" maskUnits="userSpaceOnUse" x="0" y="0" width="108"
            height="108">
            <rect width="108" height="108" fill="#C4C4C4" />
        </mask>
        <g mask="url(#mask1_2583_4307)">
            <circle cx="28.54" cy="28.54" r="72" fill="url(#paint0_radial_2583_4307)" fill-opacity="0.6" />
        </g>
    </g>
    <defs>
        <radialGradient id="paint0_radial_2583_4307" cx="0" cy="0" r="1" gradientUnits="userSpaceOnUse"
            gradientTransform="translate(28.54 28.54) rotate(90) scale(72)">
            <stop stop-color="white" stop-opacity="0.1" />
            <stop offset="1" stop-color="white" stop-opacity="0" />
        </radialGradient>
    </defs>
</svg>
