<!--
    SPDX-FileCopyrightText: The LineageOS Project
    SPDX-License-Identifier: Apache-2.0
-->
<svg width="108" height="108" viewBox="0 0 108 108" fill="none" xmlns="http://www.w3.org/2000/svg">
    <mask id="mask0_2583_4299" style="mask-type:alpha" maskUnits="userSpaceOnUse" x="18" y="18" width="72" height="72">
        <circle cx="54" cy="54" r="36" fill="white" />
    </mask>
    <g mask="url(#mask0_2583_4299)">
        <rect width="108" height="108" fill="#4D84E9" />
        <path
            d="M50.8563 71.0868C48.7353 64.4587 43.5413 59.2647 36.9132 57.1437L33.4967 56.0505C31.5011 55.4118 31.5011 52.5882 33.4967 51.9496L36.9132 50.8563C43.5413 48.7353 48.7353 43.5413 50.8563 36.9132L51.9496 33.4967C52.5882 31.5011 55.4118 31.5011 56.0505 33.4967L57.1437 36.9132C59.2647 43.5413 64.4587 48.7353 71.0868 50.8563L74.5033 51.9496C76.4989 52.5882 76.4989 55.4118 74.5033 56.0505L71.0868 57.1437C64.4587 59.2647 59.2647 64.4587 57.1437 71.0868L56.0505 74.5033C55.4118 76.4989 52.5882 76.4989 51.9496 74.5033L50.8563 71.0868Z"
            fill="white" />
        <path
            d="M53.2286 61.5033C51.8723 58.5193 49.4807 56.1277 46.4967 54.7714C45.8344 54.4703 45.8344 53.5297 46.4967 53.2286C49.4807 51.8723 51.8723 49.4807 53.2286 46.4967C53.5297 45.8344 54.4703 45.8344 54.7714 46.4967C56.1277 49.4807 58.5193 51.8723 61.5033 53.2286C62.1656 53.5297 62.1656 54.4703 61.5033 54.7714C58.5193 56.1277 56.1277 58.5193 54.7714 61.5033C54.4703 62.1656 53.5297 62.1656 53.2286 61.5033Z"
            fill="#193057" />
        <mask id="mask1_2583_4299" style="mask-type:alpha" maskUnits="userSpaceOnUse" x="0" y="0" width="108"
            height="108">
            <rect width="108" height="108" fill="#C4C4C4" />
        </mask>
        <g mask="url(#mask1_2583_4299)">
            <circle cx="28.54" cy="28.54" r="72" fill="url(#paint0_radial_2583_4299)" fill-opacity="0.6" />
        </g>
    </g>
    <defs>
        <radialGradient id="paint0_radial_2583_4299" cx="0" cy="0" r="1" gradientUnits="userSpaceOnUse"
            gradientTransform="translate(28.54 28.54) rotate(90) scale(72)">
            <stop stop-color="white" stop-opacity="0.1" />
            <stop offset="1" stop-color="white" stop-opacity="0" />
        </radialGradient>
    </defs>
</svg>
